<!--
[Modulo aonde o arquivo esta sendo criado]
@Author: André Gomes ( @acidcode )
@since 2026-02-02
Ilustracao vetorial para o topo mantendo a identidade visual azul do layout.
-->
<svg xmlns="http://www.w3.org/2000/svg" width="820" height="620" viewBox="0 0 820 620" fill="none">
  <rect width="820" height="620" rx="32" fill="#1D4296"/>
  <circle cx="120" cy="90" r="60" fill="#2B54E6" opacity="0.35"/>
  <circle cx="700" cy="110" r="90" fill="#3A6BFF" opacity="0.25"/>
  <circle cx="640" cy="520" r="120" fill="#5A87FF" opacity="0.2"/>

  <rect x="120" y="170" width="420" height="260" rx="18" fill="#274FB2"/>
  <rect x="140" y="190" width="380" height="30" rx="8" fill="#3A6BFF" opacity="0.7"/>
  <rect x="140" y="235" width="140" height="18" rx="6" fill="#5A87FF" opacity="0.8"/>
  <rect x="140" y="262" width="80" height="18" rx="6" fill="#86A8FF" opacity="0.7"/>
  <rect x="140" y="300" width="360" height="110" rx="12" fill="#1A327D"/>

  <circle cx="570" cy="250" r="56" fill="#3A6BFF"/>
  <path d="M570 194a56 56 0 0 1 56 56h-56z" fill="#FFB703"/>
  <path d="M570 194a56 56 0 0 0-48 28l48 28z" fill="#5A87FF"/>
  <path d="M570 250h56a56 56 0 0 1-32 50z" fill="#8DD0FF"/>

  <rect x="580" y="320" width="120" height="90" rx="12" fill="#1A327D"/>
  <rect x="595" y="336" width="90" height="10" rx="5" fill="#5A87FF"/>
  <rect x="595" y="356" width="64" height="10" rx="5" fill="#86A8FF"/>
  <rect x="595" y="376" width="72" height="10" rx="5" fill="#5A87FF"/>

  <circle cx="560" cy="440" r="38" fill="#2B54E6"/>
  <rect x="540" y="470" width="40" height="60" rx="10" fill="#3A6BFF"/>
  <rect x="600" y="450" width="60" height="24" rx="8" fill="#3A6BFF"/>

  <rect x="120" y="460" width="260" height="18" rx="9" fill="#3A6BFF" opacity="0.6"/>
  <rect x="120" y="490" width="200" height="18" rx="9" fill="#5A87FF" opacity="0.6"/>
  <rect x="120" y="520" width="160" height="18" rx="9" fill="#86A8FF" opacity="0.6"/>
</svg>
