<!--
[Modulo aonde o arquivo esta sendo criado]
@Author: André Gomes ( @acidcode )
@since 2026-02-02
Ilustracao vetorial do topo, inspirada no layout de referencia.
-->
<svg xmlns="http://www.w3.org/2000/svg" width="620" height="420" viewBox="0 0 620 420" fill="none">
  <rect x="30" y="40" width="560" height="330" rx="26" fill="#294FAE"/>
  <circle cx="120" cy="120" r="30" fill="#3A6BFF" opacity="0.5"/>
  <circle cx="520" cy="120" r="24" fill="#3A6BFF" opacity="0.4"/>
  <circle cx="500" cy="260" r="38" fill="#2B54E6" opacity="0.4"/>

  <rect x="140" y="120" width="320" height="170" rx="16" fill="#4A6BD9"/>
  <rect x="155" y="135" width="290" height="18" rx="8" fill="#7E9CFF"/>
  <rect x="155" y="162" width="100" height="14" rx="6" fill="#B5C7FF"/>
  <rect x="155" y="186" width="160" height="14" rx="6" fill="#9DB2FF"/>
  <rect x="155" y="214" width="270" height="64" rx="10" fill="#3753B6"/>

  <circle cx="390" cy="110" r="34" fill="#6EA2FF"/>
  <path d="M390 76a34 34 0 0 1 34 34h-34z" fill="#F5B54C"/>
  <path d="M390 76a34 34 0 0 0-26 12l26 22z" fill="#8BE0FF"/>

  <rect x="470" y="210" width="110" height="80" rx="12" fill="#3753B6"/>
  <rect x="485" y="226" width="80" height="10" rx="5" fill="#9DB2FF"/>
  <rect x="485" y="246" width="56" height="10" rx="5" fill="#B5C7FF"/>
  <rect x="485" y="266" width="70" height="10" rx="5" fill="#9DB2FF"/>

  <circle cx="460" cy="300" r="18" fill="#4A6BD9"/>
  <rect x="440" y="318" width="40" height="42" rx="10" fill="#5B7BFF"/>
  <circle cx="520" cy="300" r="18" fill="#FFB85C"/>
  <rect x="510" y="318" width="40" height="42" rx="10" fill="#FFB85C"/>

  <rect x="90" y="310" width="160" height="16" rx="8" fill="#7E9CFF" opacity="0.7"/>
  <rect x="90" y="336" width="120" height="16" rx="8" fill="#B5C7FF" opacity="0.6"/>
</svg>
