<!--
[Modulo aonde o arquivo esta sendo criado]
@Author: André Gomes ( @acidcode )
@since 2026-02-02
Ilustracao vetorial para a secao "Porque" mantendo a identidade visual azul.
-->
<svg xmlns="http://www.w3.org/2000/svg" width="960" height="640" viewBox="0 0 960 640" fill="none">
  <rect width="960" height="640" rx="36" fill="#1D4296"/>
  <circle cx="140" cy="120" r="80" fill="#2B54E6" opacity="0.3"/>
  <circle cx="820" cy="90" r="70" fill="#5A87FF" opacity="0.25"/>
  <circle cx="760" cy="560" r="120" fill="#3A6BFF" opacity="0.2"/>

  <rect x="140" y="190" width="420" height="260" rx="20" fill="#274FB2"/>
  <rect x="165" y="215" width="370" height="28" rx="8" fill="#3A6BFF" opacity="0.8"/>
  <rect x="165" y="255" width="120" height="16" rx="6" fill="#86A8FF"/>
  <rect x="165" y="280" width="220" height="16" rx="6" fill="#5A87FF"/>
  <rect x="165" y="320" width="350" height="100" rx="12" fill="#1A327D"/>

  <rect x="600" y="210" width="200" height="170" rx="18" fill="#1A327D"/>
  <rect x="620" y="230" width="160" height="16" rx="8" fill="#5A87FF"/>
  <rect x="620" y="255" width="120" height="16" rx="8" fill="#86A8FF"/>
  <rect x="620" y="280" width="140" height="16" rx="8" fill="#5A87FF"/>
  <rect x="620" y="305" width="90" height="16" rx="8" fill="#86A8FF"/>

  <circle cx="640" cy="440" r="48" fill="#2B54E6"/>
  <path d="M640 392a48 48 0 0 1 48 48h-48z" fill="#FFB703"/>
  <path d="M640 392a48 48 0 0 0-38 20l38 28z" fill="#5A87FF"/>

  <rect x="160" y="500" width="260" height="18" rx="9" fill="#3A6BFF" opacity="0.6"/>
  <rect x="160" y="530" width="210" height="18" rx="9" fill="#5A87FF" opacity="0.6"/>
  <rect x="160" y="560" width="170" height="18" rx="9" fill="#86A8FF" opacity="0.6"/>
</svg>
